<svg xmlns="http://www.w3.org/2000/svg" viewBox="0 0 1756 717" width="1756" height="717">
<rect width="100%" height="100%" fill="#ffffff"/>
<rect x="20" y="18" width="276" height="99" rx="3" fill="#ffffff"/>
<path d="M20,44 V21 Q20,18 23,18 H293 Q296,18 296,21 V44 Z" fill="#e2e6ec"/>
<text x="31" y="35.5" fill="#1c2129" font-family="IBM Plex Sans, Segoe UI, Helvetica, Arial, sans-serif" font-size="12.5" font-weight="600">students</text>
<text x="286" y="35" text-anchor="end" fill="#5a6372" font-family="IBM Plex Sans, Segoe UI, Helvetica, Arial, sans-serif" font-size="9.5">Student Service</text>
<text x="29" y="55.8" fill="#946600" font-family="IBM Plex Sans, Segoe UI, Helvetica, Arial, sans-serif" font-size="8.5" font-weight="700">PK</text>
<text x="63" y="56" fill="#1c2129" font-family="IBM Plex Mono, Consolas, Menlo, monospace" font-size="10.5" font-weight="600">student_id</text>
<text x="287" y="56" text-anchor="end" fill="#6a7280" font-family="IBM Plex Mono, Consolas, Menlo, monospace" font-size="10.5">bigint</text>
<rect x="21" y="61" width="274" height="17" fill="#f2f4f7"/>
<text x="63" y="73" fill="#1c2129" font-family="IBM Plex Mono, Consolas, Menlo, monospace" font-size="10.5">student_number</text>
<text x="287" y="73" text-anchor="end" fill="#6a7280" font-family="IBM Plex Mono, Consolas, Menlo, monospace" font-size="10.5">varchar(30)</text>
<text x="63" y="90" fill="#1c2129" font-family="IBM Plex Mono, Consolas, Menlo, monospace" font-size="10.5">last_name</text>
<text x="287" y="90" text-anchor="end" fill="#6a7280" font-family="IBM Plex Mono, Consolas, Menlo, monospace" font-size="10.5">varchar(50)</text>
<rect x="21" y="95" width="274" height="17" fill="#f2f4f7"/>
<text x="63" y="107" fill="#1c2129" font-family="IBM Plex Mono, Consolas, Menlo, monospace" font-size="10.5">first_name</text>
<text x="287" y="107" text-anchor="end" fill="#6a7280" font-family="IBM Plex Mono, Consolas, Menlo, monospace" font-size="10.5">varchar(50)</text>
<rect x="20" y="18" width="276" height="99" rx="3" fill="none" stroke="#8b93a1" stroke-width="1" stroke-dasharray="4 3"/>
<rect x="20" y="217" width="276" height="99" rx="3" fill="#ffffff"/>
<path d="M20,243 V220 Q20,217 23,217 H293 Q296,217 296,220 V243 Z" fill="#e2e6ec"/>
<text x="31" y="234.5" fill="#1c2129" font-family="IBM Plex Sans, Segoe UI, Helvetica, Arial, sans-serif" font-size="12.5" font-weight="600">scholarship_types</text>
<text x="286" y="234" text-anchor="end" fill="#5a6372" font-family="IBM Plex Sans, Segoe UI, Helvetica, Arial, sans-serif" font-size="9.5">Enrollment Service</text>
<text x="29" y="254.8" fill="#946600" font-family="IBM Plex Sans, Segoe UI, Helvetica, Arial, sans-serif" font-size="8.5" font-weight="700">PK</text>
<text x="63" y="255" fill="#1c2129" font-family="IBM Plex Mono, Consolas, Menlo, monospace" font-size="10.5" font-weight="600">scholarship_type_id</text>
<text x="287" y="255" text-anchor="end" fill="#6a7280" font-family="IBM Plex Mono, Consolas, Menlo, monospace" font-size="10.5">bigint</text>
<rect x="21" y="260" width="274" height="17" fill="#f2f4f7"/>
<text x="63" y="272" fill="#1c2129" font-family="IBM Plex Mono, Consolas, Menlo, monospace" font-size="10.5">scholarship_name</text>
<text x="287" y="272" text-anchor="end" fill="#6a7280" font-family="IBM Plex Mono, Consolas, Menlo, monospace" font-size="10.5">varchar(150)</text>
<text x="63" y="289" fill="#1c2129" font-family="IBM Plex Mono, Consolas, Menlo, monospace" font-size="10.5">discount_mode</text>
<text x="287" y="289" text-anchor="end" fill="#6a7280" font-family="IBM Plex Mono, Consolas, Menlo, monospace" font-size="10.5">varchar(20)</text>
<rect x="21" y="294" width="274" height="17" fill="#f2f4f7"/>
<text x="63" y="306" fill="#1c2129" font-family="IBM Plex Mono, Consolas, Menlo, monospace" font-size="10.5">discount_value</text>
<text x="287" y="306" text-anchor="end" fill="#6a7280" font-family="IBM Plex Mono, Consolas, Menlo, monospace" font-size="10.5">numeric(12,2)</text>
<rect x="20" y="217" width="276" height="99" rx="3" fill="none" stroke="#8b93a1" stroke-width="1" stroke-dasharray="4 3"/>
<rect x="368" y="18" width="312" height="116" rx="3" fill="#ffffff"/>
<path d="M368,44 V21 Q368,18 371,18 H677 Q680,18 680,21 V44 Z" fill="#e2e6ec"/>
<text x="379" y="35.5" fill="#1c2129" font-family="IBM Plex Sans, Segoe UI, Helvetica, Arial, sans-serif" font-size="12.5" font-weight="600">enrollments</text>
<text x="670" y="35" text-anchor="end" fill="#5a6372" font-family="IBM Plex Sans, Segoe UI, Helvetica, Arial, sans-serif" font-size="9.5">Enrollment Service</text>
<text x="377" y="55.8" fill="#946600" font-family="IBM Plex Sans, Segoe UI, Helvetica, Arial, sans-serif" font-size="8.5" font-weight="700">PK</text>
<text x="411" y="56" fill="#1c2129" font-family="IBM Plex Mono, Consolas, Menlo, monospace" font-size="10.5" font-weight="600">enrollment_id</text>
<text x="671" y="56" text-anchor="end" fill="#6a7280" font-family="IBM Plex Mono, Consolas, Menlo, monospace" font-size="10.5">bigint</text>
<rect x="369" y="61" width="310" height="17" fill="#f2f4f7"/>
<text x="377" y="72.8" fill="#6a7280" font-family="IBM Plex Sans, Segoe UI, Helvetica, Arial, sans-serif" font-size="8.5" font-weight="700">FK</text>
<text x="411" y="73" fill="#1c2129" font-family="IBM Plex Mono, Consolas, Menlo, monospace" font-size="10.5">student_id</text>
<text x="671" y="73" text-anchor="end" fill="#6a7280" font-family="IBM Plex Mono, Consolas, Menlo, monospace" font-size="10.5">bigint</text>
<text x="411" y="90" fill="#1c2129" font-family="IBM Plex Mono, Consolas, Menlo, monospace" font-size="10.5">school_year</text>
<text x="671" y="90" text-anchor="end" fill="#6a7280" font-family="IBM Plex Mono, Consolas, Menlo, monospace" font-size="10.5">varchar(20)</text>
<rect x="369" y="95" width="310" height="17" fill="#f2f4f7"/>
<text x="411" y="107" fill="#1c2129" font-family="IBM Plex Mono, Consolas, Menlo, monospace" font-size="10.5">grade_level</text>
<text x="671" y="107" text-anchor="end" fill="#6a7280" font-family="IBM Plex Mono, Consolas, Menlo, monospace" font-size="10.5">varchar(20)</text>
<text x="411" y="124" fill="#1c2129" font-family="IBM Plex Mono, Consolas, Menlo, monospace" font-size="10.5">enrollment_status</text>
<text x="671" y="124" text-anchor="end" fill="#6a7280" font-family="IBM Plex Mono, Consolas, Menlo, monospace" font-size="10.5">varchar(20)</text>
<rect x="368" y="18" width="312" height="116" rx="3" fill="none" stroke="#8b93a1" stroke-width="1" stroke-dasharray="4 3"/>
<rect x="368" y="204" width="312" height="82" rx="3" fill="#ffffff"/>
<path d="M368,230 V207 Q368,204 371,204 H677 Q680,204 680,207 V230 Z" fill="#e2e6ec"/>
<text x="379" y="221.5" fill="#1c2129" font-family="IBM Plex Sans, Segoe UI, Helvetica, Arial, sans-serif" font-size="12.5" font-weight="600">enrollment_scholarships</text>
<text x="670" y="221" text-anchor="end" fill="#5a6372" font-family="IBM Plex Sans, Segoe UI, Helvetica, Arial, sans-serif" font-size="9.5">Enrollment Service</text>
<text x="377" y="241.8" fill="#946600" font-family="IBM Plex Sans, Segoe UI, Helvetica, Arial, sans-serif" font-size="8.5" font-weight="700">PK</text>
<text x="411" y="242" fill="#1c2129" font-family="IBM Plex Mono, Consolas, Menlo, monospace" font-size="10.5" font-weight="600">enrollment_scholarship_id</text>
<text x="671" y="242" text-anchor="end" fill="#6a7280" font-family="IBM Plex Mono, Consolas, Menlo, monospace" font-size="10.5">bigint</text>
<rect x="369" y="247" width="310" height="17" fill="#f2f4f7"/>
<text x="377" y="258.8" fill="#6a7280" font-family="IBM Plex Sans, Segoe UI, Helvetica, Arial, sans-serif" font-size="8.5" font-weight="700">FK</text>
<text x="411" y="259" fill="#1c2129" font-family="IBM Plex Mono, Consolas, Menlo, monospace" font-size="10.5">enrollment_id</text>
<text x="671" y="259" text-anchor="end" fill="#6a7280" font-family="IBM Plex Mono, Consolas, Menlo, monospace" font-size="10.5">bigint</text>
<text x="377" y="275.8" fill="#6a7280" font-family="IBM Plex Sans, Segoe UI, Helvetica, Arial, sans-serif" font-size="8.5" font-weight="700">FK</text>
<text x="411" y="276" fill="#1c2129" font-family="IBM Plex Mono, Consolas, Menlo, monospace" font-size="10.5">scholarship_type_id</text>
<text x="671" y="276" text-anchor="end" fill="#6a7280" font-family="IBM Plex Mono, Consolas, Menlo, monospace" font-size="10.5">bigint</text>
<rect x="368" y="204" width="312" height="82" rx="3" fill="none" stroke="#8b93a1" stroke-width="1" stroke-dasharray="4 3"/>
<rect x="744" y="48" width="268" height="167" rx="3" fill="#ffffff"/>
<path d="M744,74 V51 Q744,48 747,48 H1009 Q1012,48 1012,51 V74 Z" fill="#A0531C"/>
<text x="755" y="65.5" fill="#ffffff" font-family="IBM Plex Sans, Segoe UI, Helvetica, Arial, sans-serif" font-size="12.5" font-weight="600">student_invoices</text>
<text x="753" y="85.8" fill="#946600" font-family="IBM Plex Sans, Segoe UI, Helvetica, Arial, sans-serif" font-size="8.5" font-weight="700">PK</text>
<text x="787" y="86" fill="#1c2129" font-family="IBM Plex Mono, Consolas, Menlo, monospace" font-size="10.5" font-weight="600">invoice_id</text>
<text x="1003" y="86" text-anchor="end" fill="#6a7280" font-family="IBM Plex Mono, Consolas, Menlo, monospace" font-size="10.5">bigint</text>
<rect x="745" y="91" width="266" height="17" fill="#f2f4f7"/>
<text x="753" y="102.8" fill="#6a7280" font-family="IBM Plex Sans, Segoe UI, Helvetica, Arial, sans-serif" font-size="8.5" font-weight="700">FK</text>
<text x="787" y="103" fill="#1c2129" font-family="IBM Plex Mono, Consolas, Menlo, monospace" font-size="10.5">enrollment_id</text>
<text x="1003" y="103" text-anchor="end" fill="#6a7280" font-family="IBM Plex Mono, Consolas, Menlo, monospace" font-size="10.5">bigint</text>
<text x="753" y="119.8" fill="#6a7280" font-family="IBM Plex Sans, Segoe UI, Helvetica, Arial, sans-serif" font-size="8.5" font-weight="700">UQ</text>
<text x="787" y="120" fill="#1c2129" font-family="IBM Plex Mono, Consolas, Menlo, monospace" font-size="10.5">invoice_no</text>
<text x="1003" y="120" text-anchor="end" fill="#6a7280" font-family="IBM Plex Mono, Consolas, Menlo, monospace" font-size="10.5">varchar(50)</text>
<rect x="745" y="125" width="266" height="17" fill="#f2f4f7"/>
<text x="787" y="137" fill="#1c2129" font-family="IBM Plex Mono, Consolas, Menlo, monospace" font-size="10.5">invoice_date</text>
<text x="1003" y="137" text-anchor="end" fill="#6a7280" font-family="IBM Plex Mono, Consolas, Menlo, monospace" font-size="10.5">date</text>
<text x="787" y="154" fill="#1c2129" font-family="IBM Plex Mono, Consolas, Menlo, monospace" font-size="10.5">due_date</text>
<text x="1003" y="154" text-anchor="end" fill="#6a7280" font-family="IBM Plex Mono, Consolas, Menlo, monospace" font-size="10.5">date</text>
<rect x="745" y="159" width="266" height="17" fill="#f2f4f7"/>
<text x="787" y="171" fill="#1c2129" font-family="IBM Plex Mono, Consolas, Menlo, monospace" font-size="10.5">payment_plan</text>
<text x="1003" y="171" text-anchor="end" fill="#6a7280" font-family="IBM Plex Mono, Consolas, Menlo, monospace" font-size="10.5">varchar(20)</text>
<text x="787" y="188" fill="#1c2129" font-family="IBM Plex Mono, Consolas, Menlo, monospace" font-size="10.5">status</text>
<text x="1003" y="188" text-anchor="end" fill="#6a7280" font-family="IBM Plex Mono, Consolas, Menlo, monospace" font-size="10.5">varchar(20)</text>
<rect x="745" y="193" width="266" height="17" fill="#f2f4f7"/>
<text x="787" y="205" fill="#1c2129" font-family="IBM Plex Mono, Consolas, Menlo, monospace" font-size="10.5">recalculated_at</text>
<text x="1003" y="205" text-anchor="end" fill="#6a7280" font-family="IBM Plex Mono, Consolas, Menlo, monospace" font-size="10.5">timestamp</text>
<rect x="744" y="48" width="268" height="167" rx="3" fill="none" stroke="#8b93a1" stroke-width="1"/>
<rect x="744" y="365" width="268" height="201" rx="3" fill="#ffffff"/>
<path d="M744,391 V368 Q744,365 747,365 H1009 Q1012,365 1012,368 V391 Z" fill="#A0531C"/>
<text x="755" y="382.5" fill="#ffffff" font-family="IBM Plex Sans, Segoe UI, Helvetica, Arial, sans-serif" font-size="12.5" font-weight="600">school_settings</text>
<text x="753" y="402.8" fill="#946600" font-family="IBM Plex Sans, Segoe UI, Helvetica, Arial, sans-serif" font-size="8.5" font-weight="700">PK</text>
<text x="787" y="403" fill="#1c2129" font-family="IBM Plex Mono, Consolas, Menlo, monospace" font-size="10.5" font-weight="600">setting_id</text>
<text x="1003" y="403" text-anchor="end" fill="#6a7280" font-family="IBM Plex Mono, Consolas, Menlo, monospace" font-size="10.5">bigint</text>
<rect x="745" y="408" width="266" height="17" fill="#f2f4f7"/>
<text x="787" y="420" fill="#1c2129" font-family="IBM Plex Mono, Consolas, Menlo, monospace" font-size="10.5">current_school_year</text>
<text x="1003" y="420" text-anchor="end" fill="#6a7280" font-family="IBM Plex Mono, Consolas, Menlo, monospace" font-size="10.5">varchar(20)</text>
<text x="787" y="437" fill="#1c2129" font-family="IBM Plex Mono, Consolas, Menlo, monospace" font-size="10.5">sy_start_date</text>
<text x="1003" y="437" text-anchor="end" fill="#6a7280" font-family="IBM Plex Mono, Consolas, Menlo, monospace" font-size="10.5">date</text>
<rect x="745" y="442" width="266" height="17" fill="#f2f4f7"/>
<text x="787" y="454" fill="#1c2129" font-family="IBM Plex Mono, Consolas, Menlo, monospace" font-size="10.5">sy_end_date</text>
<text x="1003" y="454" text-anchor="end" fill="#6a7280" font-family="IBM Plex Mono, Consolas, Menlo, monospace" font-size="10.5">date</text>
<text x="787" y="471" fill="#1c2129" font-family="IBM Plex Mono, Consolas, Menlo, monospace" font-size="10.5">early_bird_days</text>
<text x="1003" y="471" text-anchor="end" fill="#6a7280" font-family="IBM Plex Mono, Consolas, Menlo, monospace" font-size="10.5">integer</text>
<rect x="745" y="476" width="266" height="17" fill="#f2f4f7"/>
<text x="787" y="488" fill="#1c2129" font-family="IBM Plex Mono, Consolas, Menlo, monospace" font-size="10.5">school_name</text>
<text x="1003" y="488" text-anchor="end" fill="#6a7280" font-family="IBM Plex Mono, Consolas, Menlo, monospace" font-size="10.5">varchar(150)</text>
<text x="787" y="505" fill="#1c2129" font-family="IBM Plex Mono, Consolas, Menlo, monospace" font-size="10.5">school_address</text>
<text x="1003" y="505" text-anchor="end" fill="#6a7280" font-family="IBM Plex Mono, Consolas, Menlo, monospace" font-size="10.5">text</text>
<rect x="745" y="510" width="266" height="17" fill="#f2f4f7"/>
<text x="787" y="522" fill="#1c2129" font-family="IBM Plex Mono, Consolas, Menlo, monospace" font-size="10.5">contact_email</text>
<text x="1003" y="522" text-anchor="end" fill="#6a7280" font-family="IBM Plex Mono, Consolas, Menlo, monospace" font-size="10.5">varchar(150)</text>
<text x="787" y="539" fill="#1c2129" font-family="IBM Plex Mono, Consolas, Menlo, monospace" font-size="10.5">contact_phone</text>
<text x="1003" y="539" text-anchor="end" fill="#6a7280" font-family="IBM Plex Mono, Consolas, Menlo, monospace" font-size="10.5">varchar(50)</text>
<rect x="745" y="544" width="266" height="17" fill="#f2f4f7"/>
<text x="787" y="556" fill="#1c2129" font-family="IBM Plex Mono, Consolas, Menlo, monospace" font-size="10.5">updated_at</text>
<text x="1003" y="556" text-anchor="end" fill="#6a7280" font-family="IBM Plex Mono, Consolas, Menlo, monospace" font-size="10.5">timestamp</text>
<rect x="744" y="365" width="268" height="201" rx="3" fill="none" stroke="#8b93a1" stroke-width="1"/>
<rect x="1076" y="18" width="276" height="99" rx="3" fill="#ffffff"/>
<path d="M1076,44 V21 Q1076,18 1079,18 H1349 Q1352,18 1352,21 V44 Z" fill="#A0531C"/>
<text x="1087" y="35.5" fill="#ffffff" font-family="IBM Plex Sans, Segoe UI, Helvetica, Arial, sans-serif" font-size="12.5" font-weight="600">student_invoice_items</text>
<text x="1085" y="55.8" fill="#946600" font-family="IBM Plex Sans, Segoe UI, Helvetica, Arial, sans-serif" font-size="8.5" font-weight="700">PK</text>
<text x="1119" y="56" fill="#1c2129" font-family="IBM Plex Mono, Consolas, Menlo, monospace" font-size="10.5" font-weight="600">invoice_item_id</text>
<text x="1343" y="56" text-anchor="end" fill="#6a7280" font-family="IBM Plex Mono, Consolas, Menlo, monospace" font-size="10.5">bigint</text>
<rect x="1077" y="61" width="274" height="17" fill="#f2f4f7"/>
<text x="1085" y="72.8" fill="#6a7280" font-family="IBM Plex Sans, Segoe UI, Helvetica, Arial, sans-serif" font-size="8.5" font-weight="700">FK</text>
<text x="1119" y="73" fill="#1c2129" font-family="IBM Plex Mono, Consolas, Menlo, monospace" font-size="10.5">invoice_id</text>
<text x="1343" y="73" text-anchor="end" fill="#6a7280" font-family="IBM Plex Mono, Consolas, Menlo, monospace" font-size="10.5">bigint</text>
<text x="1119" y="90" fill="#1c2129" font-family="IBM Plex Mono, Consolas, Menlo, monospace" font-size="10.5">description</text>
<text x="1343" y="90" text-anchor="end" fill="#6a7280" font-family="IBM Plex Mono, Consolas, Menlo, monospace" font-size="10.5">varchar(255)</text>
<rect x="1077" y="95" width="274" height="17" fill="#f2f4f7"/>
<text x="1119" y="107" fill="#1c2129" font-family="IBM Plex Mono, Consolas, Menlo, monospace" font-size="10.5">amount</text>
<text x="1343" y="107" text-anchor="end" fill="#6a7280" font-family="IBM Plex Mono, Consolas, Menlo, monospace" font-size="10.5">numeric(12,2)</text>
<rect x="1076" y="18" width="276" height="99" rx="3" fill="none" stroke="#8b93a1" stroke-width="1"/>
<rect x="1076" y="147" width="276" height="116" rx="3" fill="#ffffff"/>
<path d="M1076,173 V150 Q1076,147 1079,147 H1349 Q1352,147 1352,150 V173 Z" fill="#A0531C"/>
<text x="1087" y="164.5" fill="#ffffff" font-family="IBM Plex Sans, Segoe UI, Helvetica, Arial, sans-serif" font-size="12.5" font-weight="600">student_invoice_discounts</text>
<text x="1085" y="184.8" fill="#946600" font-family="IBM Plex Sans, Segoe UI, Helvetica, Arial, sans-serif" font-size="8.5" font-weight="700">PK</text>
<text x="1119" y="185" fill="#1c2129" font-family="IBM Plex Mono, Consolas, Menlo, monospace" font-size="10.5" font-weight="600">invoice_discount_id</text>
<text x="1343" y="185" text-anchor="end" fill="#6a7280" font-family="IBM Plex Mono, Consolas, Menlo, monospace" font-size="10.5">bigint</text>
<rect x="1077" y="190" width="274" height="17" fill="#f2f4f7"/>
<text x="1085" y="201.8" fill="#6a7280" font-family="IBM Plex Sans, Segoe UI, Helvetica, Arial, sans-serif" font-size="8.5" font-weight="700">FK</text>
<text x="1119" y="202" fill="#1c2129" font-family="IBM Plex Mono, Consolas, Menlo, monospace" font-size="10.5">invoice_id</text>
<text x="1343" y="202" text-anchor="end" fill="#6a7280" font-family="IBM Plex Mono, Consolas, Menlo, monospace" font-size="10.5">bigint</text>
<text x="1085" y="218.8" fill="#6a7280" font-family="IBM Plex Sans, Segoe UI, Helvetica, Arial, sans-serif" font-size="8.5" font-weight="700">FK</text>
<text x="1119" y="219" fill="#1c2129" font-family="IBM Plex Mono, Consolas, Menlo, monospace" font-size="10.5">discount_type_id</text>
<text x="1343" y="219" text-anchor="end" fill="#6a7280" font-family="IBM Plex Mono, Consolas, Menlo, monospace" font-size="10.5">bigint</text>
<rect x="1077" y="224" width="274" height="17" fill="#f2f4f7"/>
<text x="1119" y="236" fill="#1c2129" font-family="IBM Plex Mono, Consolas, Menlo, monospace" font-size="10.5">description</text>
<text x="1343" y="236" text-anchor="end" fill="#6a7280" font-family="IBM Plex Mono, Consolas, Menlo, monospace" font-size="10.5">varchar(255)</text>
<text x="1119" y="253" fill="#1c2129" font-family="IBM Plex Mono, Consolas, Menlo, monospace" font-size="10.5">amount</text>
<text x="1343" y="253" text-anchor="end" fill="#6a7280" font-family="IBM Plex Mono, Consolas, Menlo, monospace" font-size="10.5">numeric(12,2)</text>
<rect x="1076" y="147" width="276" height="116" rx="3" fill="none" stroke="#8b93a1" stroke-width="1"/>
<rect x="1076" y="293" width="276" height="150" rx="3" fill="#ffffff"/>
<path d="M1076,319 V296 Q1076,293 1079,293 H1349 Q1352,293 1352,296 V319 Z" fill="#A0531C"/>
<text x="1087" y="310.5" fill="#ffffff" font-family="IBM Plex Sans, Segoe UI, Helvetica, Arial, sans-serif" font-size="12.5" font-weight="600">invoice_installments</text>
<text x="1085" y="330.8" fill="#946600" font-family="IBM Plex Sans, Segoe UI, Helvetica, Arial, sans-serif" font-size="8.5" font-weight="700">PK</text>
<text x="1119" y="331" fill="#1c2129" font-family="IBM Plex Mono, Consolas, Menlo, monospace" font-size="10.5" font-weight="600">installment_id</text>
<text x="1343" y="331" text-anchor="end" fill="#6a7280" font-family="IBM Plex Mono, Consolas, Menlo, monospace" font-size="10.5">bigint</text>
<rect x="1077" y="336" width="274" height="17" fill="#f2f4f7"/>
<text x="1085" y="347.8" fill="#6a7280" font-family="IBM Plex Sans, Segoe UI, Helvetica, Arial, sans-serif" font-size="8.5" font-weight="700">FK</text>
<text x="1119" y="348" fill="#1c2129" font-family="IBM Plex Mono, Consolas, Menlo, monospace" font-size="10.5">invoice_id</text>
<text x="1343" y="348" text-anchor="end" fill="#6a7280" font-family="IBM Plex Mono, Consolas, Menlo, monospace" font-size="10.5">bigint</text>
<text x="1119" y="365" fill="#1c2129" font-family="IBM Plex Mono, Consolas, Menlo, monospace" font-size="10.5">sequence</text>
<text x="1343" y="365" text-anchor="end" fill="#6a7280" font-family="IBM Plex Mono, Consolas, Menlo, monospace" font-size="10.5">integer</text>
<rect x="1077" y="370" width="274" height="17" fill="#f2f4f7"/>
<text x="1119" y="382" fill="#1c2129" font-family="IBM Plex Mono, Consolas, Menlo, monospace" font-size="10.5">due_date</text>
<text x="1343" y="382" text-anchor="end" fill="#6a7280" font-family="IBM Plex Mono, Consolas, Menlo, monospace" font-size="10.5">date</text>
<text x="1119" y="399" fill="#1c2129" font-family="IBM Plex Mono, Consolas, Menlo, monospace" font-size="10.5">amount</text>
<text x="1343" y="399" text-anchor="end" fill="#6a7280" font-family="IBM Plex Mono, Consolas, Menlo, monospace" font-size="10.5">numeric(12,2)</text>
<rect x="1077" y="404" width="274" height="17" fill="#f2f4f7"/>
<text x="1119" y="416" fill="#1c2129" font-family="IBM Plex Mono, Consolas, Menlo, monospace" font-size="10.5">amount_paid</text>
<text x="1343" y="416" text-anchor="end" fill="#6a7280" font-family="IBM Plex Mono, Consolas, Menlo, monospace" font-size="10.5">numeric(12,2)</text>
<text x="1119" y="433" fill="#1c2129" font-family="IBM Plex Mono, Consolas, Menlo, monospace" font-size="10.5">status</text>
<text x="1343" y="433" text-anchor="end" fill="#6a7280" font-family="IBM Plex Mono, Consolas, Menlo, monospace" font-size="10.5">varchar(20)</text>
<rect x="1076" y="293" width="276" height="150" rx="3" fill="none" stroke="#8b93a1" stroke-width="1"/>
<rect x="1076" y="473" width="276" height="167" rx="3" fill="#ffffff"/>
<path d="M1076,499 V476 Q1076,473 1079,473 H1349 Q1352,473 1352,476 V499 Z" fill="#A0531C"/>
<text x="1087" y="490.5" fill="#ffffff" font-family="IBM Plex Sans, Segoe UI, Helvetica, Arial, sans-serif" font-size="12.5" font-weight="600">student_payments</text>
<text x="1085" y="510.8" fill="#946600" font-family="IBM Plex Sans, Segoe UI, Helvetica, Arial, sans-serif" font-size="8.5" font-weight="700">PK</text>
<text x="1119" y="511" fill="#1c2129" font-family="IBM Plex Mono, Consolas, Menlo, monospace" font-size="10.5" font-weight="600">payment_id</text>
<text x="1343" y="511" text-anchor="end" fill="#6a7280" font-family="IBM Plex Mono, Consolas, Menlo, monospace" font-size="10.5">bigint</text>
<rect x="1077" y="516" width="274" height="17" fill="#f2f4f7"/>
<text x="1085" y="527.8" fill="#6a7280" font-family="IBM Plex Sans, Segoe UI, Helvetica, Arial, sans-serif" font-size="8.5" font-weight="700">FK</text>
<text x="1119" y="528" fill="#1c2129" font-family="IBM Plex Mono, Consolas, Menlo, monospace" font-size="10.5">invoice_id</text>
<text x="1343" y="528" text-anchor="end" fill="#6a7280" font-family="IBM Plex Mono, Consolas, Menlo, monospace" font-size="10.5">bigint</text>
<text x="1119" y="545" fill="#1c2129" font-family="IBM Plex Mono, Consolas, Menlo, monospace" font-size="10.5">payment_date</text>
<text x="1343" y="545" text-anchor="end" fill="#6a7280" font-family="IBM Plex Mono, Consolas, Menlo, monospace" font-size="10.5">date</text>
<rect x="1077" y="550" width="274" height="17" fill="#f2f4f7"/>
<text x="1119" y="562" fill="#1c2129" font-family="IBM Plex Mono, Consolas, Menlo, monospace" font-size="10.5">amount_paid</text>
<text x="1343" y="562" text-anchor="end" fill="#6a7280" font-family="IBM Plex Mono, Consolas, Menlo, monospace" font-size="10.5">numeric(12,2)</text>
<text x="1119" y="579" fill="#1c2129" font-family="IBM Plex Mono, Consolas, Menlo, monospace" font-size="10.5">payment_method</text>
<text x="1343" y="579" text-anchor="end" fill="#6a7280" font-family="IBM Plex Mono, Consolas, Menlo, monospace" font-size="10.5">varchar(30)</text>
<rect x="1077" y="584" width="274" height="17" fill="#f2f4f7"/>
<text x="1119" y="596" fill="#1c2129" font-family="IBM Plex Mono, Consolas, Menlo, monospace" font-size="10.5">reference_number</text>
<text x="1343" y="596" text-anchor="end" fill="#6a7280" font-family="IBM Plex Mono, Consolas, Menlo, monospace" font-size="10.5">varchar(100)</text>
<text x="1119" y="613" fill="#1c2129" font-family="IBM Plex Mono, Consolas, Menlo, monospace" font-size="10.5">notes</text>
<text x="1343" y="613" text-anchor="end" fill="#6a7280" font-family="IBM Plex Mono, Consolas, Menlo, monospace" font-size="10.5">text</text>
<rect x="1077" y="618" width="274" height="17" fill="#f2f4f7"/>
<text x="1119" y="630" fill="#1c2129" font-family="IBM Plex Mono, Consolas, Menlo, monospace" font-size="10.5">created_at</text>
<text x="1343" y="630" text-anchor="end" fill="#6a7280" font-family="IBM Plex Mono, Consolas, Menlo, monospace" font-size="10.5">timestamp</text>
<rect x="1076" y="473" width="276" height="167" rx="3" fill="none" stroke="#8b93a1" stroke-width="1"/>
<rect x="1416" y="88" width="282" height="116" rx="3" fill="#ffffff"/>
<path d="M1416,114 V91 Q1416,88 1419,88 H1695 Q1698,88 1698,91 V114 Z" fill="#A0531C"/>
<text x="1427" y="105.5" fill="#ffffff" font-family="IBM Plex Sans, Segoe UI, Helvetica, Arial, sans-serif" font-size="12.5" font-weight="600">discount_types</text>
<text x="1425" y="125.8" fill="#946600" font-family="IBM Plex Sans, Segoe UI, Helvetica, Arial, sans-serif" font-size="8.5" font-weight="700">PK</text>
<text x="1459" y="126" fill="#1c2129" font-family="IBM Plex Mono, Consolas, Menlo, monospace" font-size="10.5" font-weight="600">discount_type_id</text>
<text x="1689" y="126" text-anchor="end" fill="#6a7280" font-family="IBM Plex Mono, Consolas, Menlo, monospace" font-size="10.5">bigint</text>
<rect x="1417" y="131" width="280" height="17" fill="#f2f4f7"/>
<text x="1425" y="142.8" fill="#6a7280" font-family="IBM Plex Sans, Segoe UI, Helvetica, Arial, sans-serif" font-size="8.5" font-weight="700">UQ</text>
<text x="1459" y="143" fill="#1c2129" font-family="IBM Plex Mono, Consolas, Menlo, monospace" font-size="10.5">discount_code</text>
<text x="1689" y="143" text-anchor="end" fill="#6a7280" font-family="IBM Plex Mono, Consolas, Menlo, monospace" font-size="10.5">varchar(50)</text>
<text x="1459" y="160" fill="#1c2129" font-family="IBM Plex Mono, Consolas, Menlo, monospace" font-size="10.5">discount_name</text>
<text x="1689" y="160" text-anchor="end" fill="#6a7280" font-family="IBM Plex Mono, Consolas, Menlo, monospace" font-size="10.5">varchar(150)</text>
<rect x="1417" y="165" width="280" height="17" fill="#f2f4f7"/>
<text x="1459" y="177" fill="#1c2129" font-family="IBM Plex Mono, Consolas, Menlo, monospace" font-size="10.5">discount_mode</text>
<text x="1689" y="177" text-anchor="end" fill="#6a7280" font-family="IBM Plex Mono, Consolas, Menlo, monospace" font-size="10.5">varchar(20)</text>
<text x="1459" y="194" fill="#1c2129" font-family="IBM Plex Mono, Consolas, Menlo, monospace" font-size="10.5">discount_value</text>
<text x="1689" y="194" text-anchor="end" fill="#6a7280" font-family="IBM Plex Mono, Consolas, Menlo, monospace" font-size="10.5">numeric(12,2)</text>
<rect x="1416" y="88" width="282" height="116" rx="3" fill="none" stroke="#8b93a1" stroke-width="1"/>
<rect x="1416" y="274" width="282" height="133" rx="3" fill="#ffffff"/>
<path d="M1416,300 V277 Q1416,274 1419,274 H1695 Q1698,274 1698,277 V300 Z" fill="#A0531C"/>
<text x="1427" y="291.5" fill="#ffffff" font-family="IBM Plex Sans, Segoe UI, Helvetica, Arial, sans-serif" font-size="12.5" font-weight="600">fee_schedule_items</text>
<text x="1425" y="311.8" fill="#946600" font-family="IBM Plex Sans, Segoe UI, Helvetica, Arial, sans-serif" font-size="8.5" font-weight="700">PK</text>
<text x="1459" y="312" fill="#1c2129" font-family="IBM Plex Mono, Consolas, Menlo, monospace" font-size="10.5" font-weight="600">fee_schedule_item_id</text>
<text x="1689" y="312" text-anchor="end" fill="#6a7280" font-family="IBM Plex Mono, Consolas, Menlo, monospace" font-size="10.5">bigint</text>
<rect x="1417" y="317" width="280" height="17" fill="#f2f4f7"/>
<text x="1425" y="328.8" fill="#6a7280" font-family="IBM Plex Sans, Segoe UI, Helvetica, Arial, sans-serif" font-size="8.5" font-weight="700">FK</text>
<text x="1459" y="329" fill="#1c2129" font-family="IBM Plex Mono, Consolas, Menlo, monospace" font-size="10.5">fee_schedule_id</text>
<text x="1689" y="329" text-anchor="end" fill="#6a7280" font-family="IBM Plex Mono, Consolas, Menlo, monospace" font-size="10.5">bigint</text>
<text x="1459" y="346" fill="#1c2129" font-family="IBM Plex Mono, Consolas, Menlo, monospace" font-size="10.5">item_category</text>
<text x="1689" y="346" text-anchor="end" fill="#6a7280" font-family="IBM Plex Mono, Consolas, Menlo, monospace" font-size="10.5">varchar(20)</text>
<rect x="1417" y="351" width="280" height="17" fill="#f2f4f7"/>
<text x="1459" y="363" fill="#1c2129" font-family="IBM Plex Mono, Consolas, Menlo, monospace" font-size="10.5">item_name</text>
<text x="1689" y="363" text-anchor="end" fill="#6a7280" font-family="IBM Plex Mono, Consolas, Menlo, monospace" font-size="10.5">varchar(150)</text>
<text x="1459" y="380" fill="#1c2129" font-family="IBM Plex Mono, Consolas, Menlo, monospace" font-size="10.5">amount</text>
<text x="1689" y="380" text-anchor="end" fill="#6a7280" font-family="IBM Plex Mono, Consolas, Menlo, monospace" font-size="10.5">numeric(12,2)</text>
<rect x="1417" y="385" width="280" height="17" fill="#f2f4f7"/>
<text x="1459" y="397" fill="#1c2129" font-family="IBM Plex Mono, Consolas, Menlo, monospace" font-size="10.5">sort_order</text>
<text x="1689" y="397" text-anchor="end" fill="#6a7280" font-family="IBM Plex Mono, Consolas, Menlo, monospace" font-size="10.5">integer</text>
<rect x="1416" y="274" width="282" height="133" rx="3" fill="none" stroke="#8b93a1" stroke-width="1"/>
<rect x="1416" y="437" width="282" height="150" rx="3" fill="#ffffff"/>
<path d="M1416,463 V440 Q1416,437 1419,437 H1695 Q1698,437 1698,440 V463 Z" fill="#A0531C"/>
<text x="1427" y="454.5" fill="#ffffff" font-family="IBM Plex Sans, Segoe UI, Helvetica, Arial, sans-serif" font-size="12.5" font-weight="600">fee_schedules</text>
<text x="1425" y="474.8" fill="#946600" font-family="IBM Plex Sans, Segoe UI, Helvetica, Arial, sans-serif" font-size="8.5" font-weight="700">PK</text>
<text x="1459" y="475" fill="#1c2129" font-family="IBM Plex Mono, Consolas, Menlo, monospace" font-size="10.5" font-weight="600">fee_schedule_id</text>
<text x="1689" y="475" text-anchor="end" fill="#6a7280" font-family="IBM Plex Mono, Consolas, Menlo, monospace" font-size="10.5">bigint</text>
<rect x="1417" y="480" width="280" height="17" fill="#f2f4f7"/>
<text x="1425" y="491.8" fill="#6a7280" font-family="IBM Plex Sans, Segoe UI, Helvetica, Arial, sans-serif" font-size="8.5" font-weight="700">FK</text>
<text x="1459" y="492" fill="#1c2129" font-family="IBM Plex Mono, Consolas, Menlo, monospace" font-size="10.5">school_year</text>
<text x="1689" y="492" text-anchor="end" fill="#6a7280" font-family="IBM Plex Mono, Consolas, Menlo, monospace" font-size="10.5">varchar(20)</text>
<text x="1459" y="509" fill="#1c2129" font-family="IBM Plex Mono, Consolas, Menlo, monospace" font-size="10.5">school_level</text>
<text x="1689" y="509" text-anchor="end" fill="#6a7280" font-family="IBM Plex Mono, Consolas, Menlo, monospace" font-size="10.5">varchar(20)</text>
<rect x="1417" y="514" width="280" height="17" fill="#f2f4f7"/>
<text x="1459" y="526" fill="#1c2129" font-family="IBM Plex Mono, Consolas, Menlo, monospace" font-size="10.5">grade_level</text>
<text x="1689" y="526" text-anchor="end" fill="#6a7280" font-family="IBM Plex Mono, Consolas, Menlo, monospace" font-size="10.5">varchar(20)</text>
<text x="1459" y="543" fill="#1c2129" font-family="IBM Plex Mono, Consolas, Menlo, monospace" font-size="10.5">is_active</text>
<text x="1689" y="543" text-anchor="end" fill="#6a7280" font-family="IBM Plex Mono, Consolas, Menlo, monospace" font-size="10.5">boolean</text>
<rect x="1417" y="548" width="280" height="17" fill="#f2f4f7"/>
<text x="1459" y="560" fill="#1c2129" font-family="IBM Plex Mono, Consolas, Menlo, monospace" font-size="10.5">notes</text>
<text x="1689" y="560" text-anchor="end" fill="#6a7280" font-family="IBM Plex Mono, Consolas, Menlo, monospace" font-size="10.5">text</text>
<text x="1459" y="577" fill="#1c2129" font-family="IBM Plex Mono, Consolas, Menlo, monospace" font-size="10.5">updated_at</text>
<text x="1689" y="577" text-anchor="end" fill="#6a7280" font-family="IBM Plex Mono, Consolas, Menlo, monospace" font-size="10.5">timestamp</text>
<rect x="1416" y="437" width="282" height="150" rx="3" fill="none" stroke="#8b93a1" stroke-width="1"/>
<rect x="1416" y="617" width="282" height="82" rx="3" fill="#ffffff"/>
<path d="M1416,643 V620 Q1416,617 1419,617 H1695 Q1698,617 1698,620 V643 Z" fill="#e2e6ec"/>
<text x="1427" y="634.5" fill="#1c2129" font-family="IBM Plex Sans, Segoe UI, Helvetica, Arial, sans-serif" font-size="12.5" font-weight="600">school_years</text>
<text x="1688" y="634" text-anchor="end" fill="#5a6372" font-family="IBM Plex Sans, Segoe UI, Helvetica, Arial, sans-serif" font-size="9.5">Enrollment Service</text>
<text x="1425" y="654.8" fill="#946600" font-family="IBM Plex Sans, Segoe UI, Helvetica, Arial, sans-serif" font-size="8.5" font-weight="700">PK</text>
<text x="1459" y="655" fill="#1c2129" font-family="IBM Plex Mono, Consolas, Menlo, monospace" font-size="10.5" font-weight="600">school_year_id</text>
<text x="1689" y="655" text-anchor="end" fill="#6a7280" font-family="IBM Plex Mono, Consolas, Menlo, monospace" font-size="10.5">bigint</text>
<rect x="1417" y="660" width="280" height="17" fill="#f2f4f7"/>
<text x="1425" y="671.8" fill="#6a7280" font-family="IBM Plex Sans, Segoe UI, Helvetica, Arial, sans-serif" font-size="8.5" font-weight="700">UQ</text>
<text x="1459" y="672" fill="#1c2129" font-family="IBM Plex Mono, Consolas, Menlo, monospace" font-size="10.5">label</text>
<text x="1689" y="672" text-anchor="end" fill="#6a7280" font-family="IBM Plex Mono, Consolas, Menlo, monospace" font-size="10.5">varchar(20)</text>
<text x="1459" y="689" fill="#1c2129" font-family="IBM Plex Mono, Consolas, Menlo, monospace" font-size="10.5">start_date</text>
<text x="1689" y="689" text-anchor="end" fill="#6a7280" font-family="IBM Plex Mono, Consolas, Menlo, monospace" font-size="10.5">date</text>
<rect x="1416" y="617" width="282" height="82" rx="3" fill="none" stroke="#8b93a1" stroke-width="1" stroke-dasharray="4 3"/>
<line x1="296" y1="52.5" x2="326" y2="52.5" fill="none" stroke="#39414e" stroke-width="1.2"/>
<line x1="368" y1="69.5" x2="326" y2="69.5" fill="none" stroke="#39414e" stroke-width="1.2"/>
<line x1="326" y1="52.5" x2="326" y2="69.5" fill="none" stroke="#39414e" stroke-width="1.2"/>
<line x1="680" y1="52.5" x2="710" y2="52.5" fill="none" stroke="#39414e" stroke-width="1.2"/>
<line x1="680" y1="255.5" x2="710" y2="255.5" fill="none" stroke="#39414e" stroke-width="1.2"/>
<line x1="744" y1="99.5" x2="710" y2="99.5" fill="none" stroke="#39414e" stroke-width="1.2"/>
<line x1="710" y1="52.5" x2="710" y2="255.5" fill="none" stroke="#39414e" stroke-width="1.2"/>
<line x1="296" y1="251.5" x2="338" y2="251.5" fill="none" stroke="#39414e" stroke-width="1.2"/>
<line x1="368" y1="272.5" x2="338" y2="272.5" fill="none" stroke="#39414e" stroke-width="1.2"/>
<line x1="338" y1="251.5" x2="338" y2="272.5" fill="none" stroke="#39414e" stroke-width="1.2"/>
<line x1="1012" y1="82.5" x2="1042" y2="82.5" fill="none" stroke="#39414e" stroke-width="1.2"/>
<line x1="1076" y1="69.5" x2="1042" y2="69.5" fill="none" stroke="#39414e" stroke-width="1.2"/>
<line x1="1076" y1="198.5" x2="1042" y2="198.5" fill="none" stroke="#39414e" stroke-width="1.2"/>
<line x1="1076" y1="344.5" x2="1042" y2="344.5" fill="none" stroke="#39414e" stroke-width="1.2"/>
<line x1="1076" y1="524.5" x2="1042" y2="524.5" fill="none" stroke="#39414e" stroke-width="1.2"/>
<line x1="1042" y1="69.5" x2="1042" y2="524.5" fill="none" stroke="#39414e" stroke-width="1.2"/>
<line x1="1416" y1="122.5" x2="1382" y2="122.5" fill="none" stroke="#39414e" stroke-width="1.2"/>
<line x1="1352" y1="215.5" x2="1382" y2="215.5" fill="none" stroke="#39414e" stroke-width="1.2"/>
<line x1="1382" y1="122.5" x2="1382" y2="215.5" fill="none" stroke="#39414e" stroke-width="1.2"/>
<line x1="1698" y1="471.5" x2="1728" y2="471.5" fill="none" stroke="#39414e" stroke-width="1.2"/>
<line x1="1698" y1="325.5" x2="1728" y2="325.5" fill="none" stroke="#39414e" stroke-width="1.2"/>
<line x1="1728" y1="325.5" x2="1728" y2="471.5" fill="none" stroke="#39414e" stroke-width="1.2"/>
<line x1="1698" y1="668.5" x2="1740" y2="668.5" fill="none" stroke="#39414e" stroke-width="1.2"/>
<line x1="1698" y1="488.5" x2="1740" y2="488.5" fill="none" stroke="#39414e" stroke-width="1.2"/>
<line x1="1740" y1="488.5" x2="1740" y2="668.5" fill="none" stroke="#39414e" stroke-width="1.2"/>
<line x1="304" y1="46.5" x2="304" y2="58.5" fill="none" stroke="#39414e" stroke-width="1.2"/>
<line x1="309" y1="46.5" x2="309" y2="58.5" fill="none" stroke="#39414e" stroke-width="1.2"/>
<path d="M356,69.5 L368,63.5 M356,69.5 L368,75.5" fill="none" stroke="#39414e" stroke-width="1.2"/>
<circle cx="350" cy="69.5" r="3.8" fill="#ffffff" stroke="#39414e" stroke-width="1.2"/>
<line x1="688" y1="46.5" x2="688" y2="58.5" fill="none" stroke="#39414e" stroke-width="1.2"/>
<line x1="693" y1="46.5" x2="693" y2="58.5" fill="none" stroke="#39414e" stroke-width="1.2"/>
<path d="M692,255.5 L680,249.5 M692,255.5 L680,261.5" fill="none" stroke="#39414e" stroke-width="1.2"/>
<circle cx="698" cy="255.5" r="3.8" fill="#ffffff" stroke="#39414e" stroke-width="1.2"/>
<path d="M732,99.5 L744,93.5 M732,99.5 L744,105.5" fill="none" stroke="#39414e" stroke-width="1.2"/>
<circle cx="726" cy="99.5" r="3.8" fill="#ffffff" stroke="#39414e" stroke-width="1.2"/>
<line x1="304" y1="245.5" x2="304" y2="257.5" fill="none" stroke="#39414e" stroke-width="1.2"/>
<line x1="309" y1="245.5" x2="309" y2="257.5" fill="none" stroke="#39414e" stroke-width="1.2"/>
<path d="M356,272.5 L368,266.5 M356,272.5 L368,278.5" fill="none" stroke="#39414e" stroke-width="1.2"/>
<circle cx="350" cy="272.5" r="3.8" fill="#ffffff" stroke="#39414e" stroke-width="1.2"/>
<line x1="1020" y1="76.5" x2="1020" y2="88.5" fill="none" stroke="#39414e" stroke-width="1.2"/>
<line x1="1025" y1="76.5" x2="1025" y2="88.5" fill="none" stroke="#39414e" stroke-width="1.2"/>
<path d="M1064,69.5 L1076,63.5 M1064,69.5 L1076,75.5" fill="none" stroke="#39414e" stroke-width="1.2"/>
<circle cx="1058" cy="69.5" r="3.8" fill="#ffffff" stroke="#39414e" stroke-width="1.2"/>
<path d="M1064,198.5 L1076,192.5 M1064,198.5 L1076,204.5" fill="none" stroke="#39414e" stroke-width="1.2"/>
<circle cx="1058" cy="198.5" r="3.8" fill="#ffffff" stroke="#39414e" stroke-width="1.2"/>
<path d="M1064,344.5 L1076,338.5 M1064,344.5 L1076,350.5" fill="none" stroke="#39414e" stroke-width="1.2"/>
<circle cx="1058" cy="344.5" r="3.8" fill="#ffffff" stroke="#39414e" stroke-width="1.2"/>
<path d="M1064,524.5 L1076,518.5 M1064,524.5 L1076,530.5" fill="none" stroke="#39414e" stroke-width="1.2"/>
<circle cx="1058" cy="524.5" r="3.8" fill="#ffffff" stroke="#39414e" stroke-width="1.2"/>
<line x1="1408" y1="116.5" x2="1408" y2="128.5" fill="none" stroke="#39414e" stroke-width="1.2"/>
<circle cx="1399" cy="122.5" r="3.8" fill="#ffffff" stroke="#39414e" stroke-width="1.2"/>
<path d="M1364,215.5 L1352,209.5 M1364,215.5 L1352,221.5" fill="none" stroke="#39414e" stroke-width="1.2"/>
<circle cx="1370" cy="215.5" r="3.8" fill="#ffffff" stroke="#39414e" stroke-width="1.2"/>
<line x1="1706" y1="465.5" x2="1706" y2="477.5" fill="none" stroke="#39414e" stroke-width="1.2"/>
<line x1="1711" y1="465.5" x2="1711" y2="477.5" fill="none" stroke="#39414e" stroke-width="1.2"/>
<path d="M1710,325.5 L1698,319.5 M1710,325.5 L1698,331.5" fill="none" stroke="#39414e" stroke-width="1.2"/>
<circle cx="1716" cy="325.5" r="3.8" fill="#ffffff" stroke="#39414e" stroke-width="1.2"/>
<line x1="1706" y1="662.5" x2="1706" y2="674.5" fill="none" stroke="#39414e" stroke-width="1.2"/>
<line x1="1711" y1="662.5" x2="1711" y2="674.5" fill="none" stroke="#39414e" stroke-width="1.2"/>
<path d="M1710,488.5 L1698,482.5 M1710,488.5 L1698,494.5" fill="none" stroke="#39414e" stroke-width="1.2"/>
<circle cx="1716" cy="488.5" r="3.8" fill="#ffffff" stroke="#39414e" stroke-width="1.2"/>
<circle cx="710" cy="99.5" r="2.3" fill="#39414e"/>
<circle cx="1042" cy="82.5" r="2.3" fill="#39414e"/>
<circle cx="1042" cy="198.5" r="2.3" fill="#39414e"/>
<circle cx="1042" cy="344.5" r="2.3" fill="#39414e"/>
</svg>
